<svg width="24" height="24" viewBox="0 0 24 24" fill="none" xmlns="http://www.w3.org/2000/svg">
<path d="M16.25 5H5.75C5.28587 5 4.84075 5.1724 4.51256 5.47928C4.18437 5.78616 4 6.20237 4 6.63636V22.1818C4 22.3321 4.04429 22.4796 4.12801 22.6079C4.21174 22.7362 4.33166 22.8405 4.47461 22.9093C4.61757 22.9781 4.77802 23.0087 4.93838 22.9979C5.09873 22.987 5.25277 22.935 5.38359 22.8476L11 19.0962L16.6175 22.8476C16.7483 22.9347 16.9023 22.9864 17.0624 22.9972C17.2226 23.0079 17.3829 22.9772 17.5256 22.9085C17.6684 22.8397 17.7882 22.7355 17.8719 22.6074C17.9555 22.4792 17.9999 22.332 18 22.1818V6.63636C18 6.20237 17.8156 5.78616 17.4874 5.47928C17.1592 5.1724 16.7141 5 16.25 5Z" fill="#313131"/>
<path d="M19.375 1H8.8125C8.59701 1 8.39035 1.0862 8.23798 1.23964C8.0856 1.39308 8 1.60119 8 1.81818C8 2.03518 8.0856 2.24328 8.23798 2.39672C8.39035 2.55016 8.59701 2.63636 8.8125 2.63636H19.375V18.1818C19.375 18.3988 19.4606 18.6069 19.613 18.7604C19.7653 18.9138 19.972 19 20.1875 19C20.403 19 20.6097 18.9138 20.762 18.7604C20.9144 18.6069 21 18.3988 21 18.1818V2.63636C21 2.20237 20.8288 1.78616 20.524 1.47928C20.2193 1.1724 19.806 1 19.375 1Z" fill="#313131"/>
</svg>
