<svg width="32" height="24" viewBox="0 0 32 24" fill="none" xmlns="http://www.w3.org/2000/svg">
<path d="M20.25 5H9.75C9.28587 5 8.84075 5.1724 8.51256 5.47928C8.18437 5.78616 8 6.20237 8 6.63636V22.1818C8 22.3321 8.04429 22.4796 8.12801 22.6079C8.21174 22.7362 8.33166 22.8405 8.47461 22.9093C8.61757 22.9781 8.77802 23.0087 8.93838 22.9979C9.09873 22.987 9.25277 22.935 9.38359 22.8476L15 19.0962L20.6175 22.8476C20.7483 22.9347 20.9023 22.9864 21.0624 22.9972C21.2226 23.0079 21.3829 22.9772 21.5256 22.9085C21.6684 22.8397 21.7882 22.7355 21.8719 22.6074C21.9555 22.4792 21.9999 22.332 22 22.1818V6.63636C22 6.20237 21.8156 5.78616 21.4874 5.47928C21.1592 5.1724 20.7141 5 20.25 5Z" fill="#91A0A8"/>
<path d="M23.375 1H12.8125C12.597 1 12.3903 1.0862 12.238 1.23964C12.0856 1.39308 12 1.60119 12 1.81818C12 2.03518 12.0856 2.24328 12.238 2.39672C12.3903 2.55016 12.597 2.63636 12.8125 2.63636H23.375V18.1818C23.375 18.3988 23.4606 18.6069 23.613 18.7604C23.7653 18.9138 23.972 19 24.1875 19C24.403 19 24.6097 18.9138 24.762 18.7604C24.9144 18.6069 25 18.3988 25 18.1818V2.63636C25 2.20237 24.8288 1.78616 24.524 1.47928C24.2193 1.1724 23.806 1 23.375 1Z" fill="#91A0A8"/>
</svg>
