<svg width="24" height="24" viewBox="0 0 24 24" fill="none" xmlns="http://www.w3.org/2000/svg">
<path d="M7.87497 12.75C7.87491 13.3153 7.6924 13.8654 7.35457 14.3186C7.01675 14.7718 6.54166 15.1038 5.99997 15.2653V20.25C5.99997 20.4489 5.92095 20.6397 5.7803 20.7803C5.63965 20.921 5.44888 21 5.24997 21C5.05106 21 4.86029 20.921 4.71964 20.7803C4.57899 20.6397 4.49997 20.4489 4.49997 20.25V15.2653C3.95845 15.1037 3.48355 14.7715 3.1459 14.3184C2.80824 13.8652 2.62585 13.3151 2.62585 12.75C2.62585 12.1849 2.80824 11.6348 3.1459 11.1816C3.48355 10.7285 3.95845 10.3963 4.49997 10.2347V3.75C4.49997 3.55109 4.57899 3.36032 4.71964 3.21967C4.86029 3.07902 5.05106 3 5.24997 3C5.44888 3 5.63965 3.07902 5.7803 3.21967C5.92095 3.36032 5.99997 3.55109 5.99997 3.75V10.2347C6.54166 10.3962 7.01675 10.7282 7.35457 11.1814C7.6924 11.6346 7.87491 12.1847 7.87497 12.75ZM12.75 5.73469V3.75C12.75 3.55109 12.671 3.36032 12.5303 3.21967C12.3896 3.07902 12.1989 3 12 3C11.8011 3 11.6103 3.07902 11.4696 3.21967C11.329 3.36032 11.25 3.55109 11.25 3.75V5.73469C10.7084 5.89635 10.2336 6.22845 9.8959 6.68163C9.55824 7.13481 9.37585 7.68486 9.37585 8.25C9.37585 8.81514 9.55824 9.36519 9.8959 9.81837C10.2336 10.2715 10.7084 10.6037 11.25 10.7653V20.25C11.25 20.4489 11.329 20.6397 11.4696 20.7803C11.6103 20.921 11.8011 21 12 21C12.1989 21 12.3896 20.921 12.5303 20.7803C12.671 20.6397 12.75 20.4489 12.75 20.25V10.7653C13.2915 10.6037 13.7664 10.2715 14.104 9.81837C14.4417 9.36519 14.6241 8.81514 14.6241 8.25C14.6241 7.68486 14.4417 7.13481 14.104 6.68163C13.7664 6.22845 13.2915 5.89635 12.75 5.73469ZM19.5 13.2347V3.75C19.5 3.55109 19.421 3.36032 19.2803 3.21967C19.1397 3.07902 18.9489 3 18.75 3C18.5511 3 18.3603 3.07902 18.2196 3.21967C18.079 3.36032 18 3.55109 18 3.75V13.2347C17.4584 13.3963 16.9836 13.7285 16.6459 14.1816C16.3082 14.6348 16.1259 15.1849 16.1259 15.75C16.1259 16.3151 16.3082 16.8652 16.6459 17.3184C16.9836 17.7715 17.4584 18.1037 18 18.2653V20.25C18 20.4489 18.079 20.6397 18.2196 20.7803C18.3603 20.921 18.5511 21 18.75 21C18.9489 21 19.1397 20.921 19.2803 20.7803C19.421 20.6397 19.5 20.4489 19.5 20.25V18.2653C20.0415 18.1037 20.5164 17.7715 20.854 17.3184C21.1917 16.8652 21.3741 16.3151 21.3741 15.75C21.3741 15.1849 21.1917 14.6348 20.854 14.1816C20.5164 13.7285 20.0415 13.3963 19.5 13.2347Z" fill="#C6FE22"/>
</svg>
