<svg width="51" height="50" viewBox="0 0 51 50" fill="none" xmlns="http://www.w3.org/2000/svg">
<g clip-path="url(#clip0_66_15048)">
<path d="M37.1668 28.3209L28.416 37.1201C27.6409 37.8975 26.5928 38.3337 25.5005 38.3337C24.4082 38.3337 23.3601 37.8975 22.5849 37.1201L13.8317 28.3209C12.3003 26.784 11.0849 24.9563 10.2556 22.943C9.42623 20.9298 8.99927 18.7707 8.99927 16.5901C8.99927 14.4095 9.42623 12.2504 10.2556 10.2372C11.0849 8.22389 12.3003 6.39619 13.8317 4.85925C16.933 1.74692 21.1272 0.00012207 25.4988 0.00012207C29.8705 0.00012207 34.0647 1.74692 37.166 4.85925C38.6974 6.39619 39.9128 8.22389 40.7421 10.2372C41.5715 12.2504 41.9984 14.4095 41.9984 16.5901C41.9984 18.7707 41.5715 20.9298 40.7421 22.943C39.9128 24.9563 38.6982 26.784 37.1668 28.3209Z" fill="#25D582"/>
<path d="M25.5 30C32.7902 30 38.7 24.0305 38.7 16.6667C38.7 9.30291 32.7902 3.33337 25.5 3.33337C18.2099 3.33337 12.3 9.30291 12.3 16.6667C12.3 24.0305 18.2099 30 25.5 30Z" fill="white"/>
<path d="M25.5 50C29.1451 50 32.1 47.0153 32.1 43.3334C32.1 39.6515 29.1451 36.6667 25.5 36.6667C21.8549 36.6667 18.9 39.6515 18.9 43.3334C18.9 47.0153 21.8549 50 25.5 50Z" fill="#25D582" fill-opacity="0.3"/>
<path d="M25.5 46.6667C27.3225 46.6667 28.8 45.1743 28.8 43.3333C28.8 41.4924 27.3225 40 25.5 40C23.6774 40 22.2 41.4924 22.2 43.3333C22.2 45.1743 23.6774 46.6667 25.5 46.6667Z" fill="#25D582"/>
<path fill-rule="evenodd" clip-rule="evenodd" d="M34.0858 15.2174H35.0021C35.1821 15.2174 35.3547 15.2883 35.482 15.4147C35.6093 15.541 35.6808 15.7123 35.6808 15.891C35.6808 16.0696 35.6093 16.241 35.482 16.3673C35.3547 16.4936 35.1821 16.5646 35.0021 16.5646H34.3233V23.3007C34.3233 23.658 34.1803 24.0006 33.9258 24.2533C33.6712 24.5059 33.3259 24.6479 32.9659 24.6479H30.9297C30.5697 24.6479 30.2244 24.5059 29.9699 24.2533C29.7153 24.0006 29.5723 23.658 29.5723 23.3007V22.627H21.4276V23.3007C21.4276 23.658 21.2846 24.0006 21.03 24.2533C20.7754 24.5059 20.4302 24.6479 20.0702 24.6479H18.034C17.674 24.6479 17.3287 24.5059 17.0741 24.2533C16.8196 24.0006 16.6765 23.658 16.6765 23.3007V16.5646H15.9978C15.8178 16.5646 15.6452 16.4936 15.5179 16.3673C15.3906 16.241 15.3191 16.0696 15.3191 15.891C15.3191 15.7123 15.3906 15.541 15.5179 15.4147C15.6452 15.2883 15.8178 15.2174 15.9978 15.2174H16.9141L19.271 9.95482C19.3776 9.71672 19.5516 9.51443 19.7717 9.37245C19.9919 9.23048 20.2488 9.15491 20.5113 9.15491H30.4886C30.7511 9.15491 31.008 9.23048 31.2282 9.37245C31.4483 9.51443 31.6223 9.71672 31.7289 9.95482L34.0858 15.2174ZM19.8922 11.8845C19.1932 13.4455 20.318 15.2174 22.008 15.2174H28.9919C30.6819 15.2174 31.8067 13.4455 31.1077 11.8845C30.7306 11.0427 29.9033 10.5021 28.9919 10.5021H22.008C21.0965 10.5021 20.2692 11.0427 19.8922 11.8845ZM29.668 16.256C30.2479 16.256 30.718 16.7329 30.718 17.3212V19.4515C30.718 20.0398 30.2479 20.5167 29.668 20.5167C29.0882 20.5167 28.6181 20.0398 28.6181 19.4515V17.3212C28.6181 16.7329 29.0882 16.256 29.668 16.256ZM20.8895 16.3851C20.7771 16.3001 20.6391 16.256 20.499 16.256C19.8901 16.256 19.5917 17.0087 20.0309 17.4365L20.3602 17.7572C20.7126 18.1004 20.7126 18.6722 20.3602 19.0154L20.0381 19.3292C19.5962 19.7595 19.8965 20.5167 20.509 20.5167C20.6429 20.5167 20.7744 20.4771 20.8842 20.3994C22.5902 19.1924 22.9907 17.9737 20.8895 16.3851Z" fill="#25D582"/>
</g>
<defs>
<clipPath id="clip0_66_15048">
<rect width="33" height="50" fill="white" transform="translate(9)"/>
</clipPath>
</defs>
</svg>
