<svg width="51" height="50" viewBox="0 0 51 50" fill="none" xmlns="http://www.w3.org/2000/svg">
<g clip-path="url(#clip0_66_15069)">
<path d="M37.1668 28.3209L28.416 37.1201C27.6409 37.8975 26.5928 38.3337 25.5005 38.3337C24.4082 38.3337 23.3601 37.8975 22.5849 37.1201L13.8317 28.3209C12.3003 26.784 11.0849 24.9563 10.2556 22.943C9.42623 20.9298 8.99927 18.7707 8.99927 16.5901C8.99927 14.4095 9.42623 12.2504 10.2556 10.2372C11.0849 8.22389 12.3003 6.39619 13.8317 4.85925C16.933 1.74692 21.1272 0.00012207 25.4988 0.00012207C29.8705 0.00012207 34.0647 1.74692 37.166 4.85925C38.6974 6.39619 39.9128 8.22389 40.7421 10.2372C41.5715 12.2504 41.9984 14.4095 41.9984 16.5901C41.9984 18.7707 41.5715 20.9298 40.7421 22.943C39.9128 24.9563 38.6982 26.784 37.1668 28.3209Z" fill="#FF6055"/>
<path d="M25.5 30C32.7902 30 38.7 24.0305 38.7 16.6667C38.7 9.30291 32.7902 3.33337 25.5 3.33337C18.2099 3.33337 12.3 9.30291 12.3 16.6667C12.3 24.0305 18.2099 30 25.5 30Z" fill="white"/>
<path fill-rule="evenodd" clip-rule="evenodd" d="M34.0858 15.2174H35.0021C35.1821 15.2174 35.3547 15.2884 35.482 15.4147C35.6093 15.541 35.6808 15.7124 35.6808 15.891C35.6808 16.0697 35.6093 16.241 35.482 16.3673C35.3547 16.4937 35.1821 16.5646 35.0021 16.5646H34.3233V23.3007C34.3233 23.658 34.1803 24.0007 33.9258 24.2533C33.6712 24.506 33.3259 24.6479 32.9659 24.6479H30.9297C30.5697 24.6479 30.2244 24.506 29.9699 24.2533C29.7153 24.0007 29.5723 23.658 29.5723 23.3007V22.6271H21.4276V23.3007C21.4276 23.658 21.2846 24.0007 21.03 24.2533C20.7754 24.506 20.4302 24.6479 20.0702 24.6479H18.034C17.674 24.6479 17.3287 24.506 17.0741 24.2533C16.8196 24.0007 16.6765 23.658 16.6765 23.3007V16.5646H15.9978C15.8178 16.5646 15.6452 16.4937 15.5179 16.3673C15.3906 16.241 15.3191 16.0697 15.3191 15.891C15.3191 15.7124 15.3906 15.541 15.5179 15.4147C15.6452 15.2884 15.8178 15.2174 15.9978 15.2174H16.9141L19.271 9.95488C19.3776 9.71678 19.5516 9.51449 19.7717 9.37251C19.9919 9.23054 20.2488 9.15497 20.5113 9.15497H30.4886C30.7511 9.15497 31.008 9.23054 31.2282 9.37251C31.4483 9.51449 31.6223 9.71678 31.7289 9.95488L34.0858 15.2174ZM19.8206 12.0445C19.1537 13.5337 20.2399 15.2174 21.8676 15.2174H29.2535C30.8243 15.2174 31.8726 13.5926 31.2289 12.1554C30.7784 11.1494 29.7812 10.5022 28.6816 10.5022H22.197C21.1712 10.5022 20.2409 11.106 19.8206 12.0445ZM20.1615 18.9931L20.7648 18.293L20.1779 17.6429C19.847 17.2764 20.1063 16.6902 20.5992 16.6902C20.7595 16.6902 20.9124 16.7581 21.0201 16.8772L21.5749 17.4905L22.0519 16.8998C22.159 16.7672 22.32 16.6902 22.4901 16.6902C22.9735 16.6902 23.2328 17.2603 22.916 17.6265L22.3203 18.315L22.9186 18.9776C23.2492 19.3438 22.9902 19.9296 22.4977 19.9296C22.3364 19.9296 22.1828 19.8609 22.075 19.7405L21.5148 19.1145L21.0277 19.7192C20.9206 19.8523 20.7591 19.9296 20.5886 19.9296C20.1051 19.9296 19.8453 19.3599 20.1615 18.9931ZM27.8849 18.9931L28.4882 18.293L27.9013 17.6429C27.5704 17.2764 27.8297 16.6902 28.3226 16.6902C28.4829 16.6902 28.6358 16.7581 28.7435 16.8772L29.2983 17.4905L29.7753 16.8998C29.8824 16.7672 30.0434 16.6902 30.2135 16.6902C30.6969 16.6902 30.9562 17.2603 30.6394 17.6265L30.0437 18.315L30.642 18.9776C30.9726 19.3438 30.7136 19.9296 30.2211 19.9296C30.0598 19.9296 29.9062 19.8609 29.7984 19.7405L29.2382 19.1145L28.7511 19.7192C28.644 19.8523 28.4825 19.9296 28.312 19.9296C27.8285 19.9296 27.5687 19.3599 27.8849 18.9931Z" fill="#FF6055"/>
<path d="M25.5 50C29.1451 50 32.1 47.0153 32.1 43.3334C32.1 39.6515 29.1451 36.6667 25.5 36.6667C21.8549 36.6667 18.9 39.6515 18.9 43.3334C18.9 47.0153 21.8549 50 25.5 50Z" fill="#FF6055" fill-opacity="0.3"/>
<path d="M25.5 46.6667C27.3225 46.6667 28.8 45.1743 28.8 43.3333C28.8 41.4924 27.3225 40 25.5 40C23.6774 40 22.2 41.4924 22.2 43.3333C22.2 45.1743 23.6774 46.6667 25.5 46.6667Z" fill="#FF6055"/>
</g>
<defs>
<clipPath id="clip0_66_15069">
<rect width="33" height="50" fill="white" transform="translate(9)"/>
</clipPath>
</defs>
</svg>
