<svg width="32" height="24" viewBox="0 0 32 24" fill="none" xmlns="http://www.w3.org/2000/svg">
<g clip-path="url(#clip0_41_53)">
<path d="M26.5 11.25H24.2153C24.0376 9.3301 23.1939 7.53282 21.8306 6.16944C20.4672 4.80606 18.6699 3.96244 16.75 3.78469V1.5C16.75 1.30109 16.671 1.11032 16.5303 0.96967C16.3897 0.829018 16.1989 0.75 16 0.75C15.8011 0.75 15.6103 0.829018 15.4697 0.96967C15.329 1.11032 15.25 1.30109 15.25 1.5V3.78469C13.3301 3.96244 11.5328 4.80606 10.1694 6.16944C8.80606 7.53282 7.96244 9.3301 7.78469 11.25H5.5C5.30109 11.25 5.11032 11.329 4.96967 11.4697C4.82902 11.6103 4.75 11.8011 4.75 12C4.75 12.1989 4.82902 12.3897 4.96967 12.5303C5.11032 12.671 5.30109 12.75 5.5 12.75H7.78469C7.96244 14.6699 8.80606 16.4672 10.1694 17.8306C11.5328 19.1939 13.3301 20.0376 15.25 20.2153V22.5C15.25 22.6989 15.329 22.8897 15.4697 23.0303C15.6103 23.171 15.8011 23.25 16 23.25C16.1989 23.25 16.3897 23.171 16.5303 23.0303C16.671 22.8897 16.75 22.6989 16.75 22.5V20.2153C18.6699 20.0376 20.4672 19.1939 21.8306 17.8306C23.1939 16.4672 24.0376 14.6699 24.2153 12.75H26.5C26.6989 12.75 26.8897 12.671 27.0303 12.5303C27.171 12.3897 27.25 12.1989 27.25 12C27.25 11.8011 27.171 11.6103 27.0303 11.4697C26.8897 11.329 26.6989 11.25 26.5 11.25ZM16 18.75C14.665 18.75 13.3599 18.3541 12.2499 17.6124C11.1399 16.8707 10.2747 15.8165 9.76381 14.5831C9.25292 13.3497 9.11925 11.9925 9.3797 10.6831C9.64015 9.37377 10.283 8.17103 11.227 7.22703C12.171 6.28302 13.3738 5.64015 14.6831 5.3797C15.9925 5.11925 17.3497 5.25292 18.5831 5.76381C19.8165 6.2747 20.8707 7.13987 21.6124 8.2499C22.3541 9.35993 22.75 10.665 22.75 12C22.748 13.7896 22.0362 15.5053 20.7708 16.7708C19.5053 18.0362 17.7896 18.748 16 18.75ZM19.75 12C19.75 12.7417 19.5301 13.4667 19.118 14.0834C18.706 14.7001 18.1203 15.1807 17.4351 15.4645C16.7498 15.7484 15.9958 15.8226 15.2684 15.6779C14.541 15.5333 13.8728 15.1761 13.3483 14.6517C12.8239 14.1272 12.4667 13.459 12.3221 12.7316C12.1774 12.0042 12.2516 11.2502 12.5355 10.5649C12.8193 9.87971 13.2999 9.29404 13.9166 8.88199C14.5333 8.46993 15.2583 8.25 16 8.25C16.9946 8.25 17.9484 8.64509 18.6517 9.34835C19.3549 10.0516 19.75 11.0054 19.75 12Z" fill="#91A0A8"/>
</g>
<defs>
<clipPath id="clip0_41_53">
<rect width="24" height="24" fill="white" transform="translate(4)"/>
</clipPath>
</defs>
</svg>
