<svg width="51" height="50" viewBox="0 0 51 50" fill="none" xmlns="http://www.w3.org/2000/svg">
<g clip-path="url(#clip0_66_15049)">
<path d="M37.1668 28.3209L28.416 37.1201C27.6409 37.8975 26.5928 38.3337 25.5005 38.3337C24.4082 38.3337 23.3601 37.8975 22.5849 37.1201L13.8317 28.3209C12.3003 26.784 11.0849 24.9563 10.2556 22.943C9.42623 20.9298 8.99927 18.7707 8.99927 16.5901C8.99927 14.4095 9.42623 12.2504 10.2556 10.2372C11.0849 8.22389 12.3003 6.39619 13.8317 4.85925C16.933 1.74692 21.1272 0.00012207 25.4988 0.00012207C29.8705 0.00012207 34.0647 1.74692 37.166 4.85925C38.6974 6.39619 39.9128 8.22389 40.7421 10.2372C41.5715 12.2504 41.9984 14.4095 41.9984 16.5901C41.9984 18.7707 41.5715 20.9298 40.7421 22.943C39.9128 24.9563 38.6982 26.784 37.1668 28.3209Z" fill="#FBB400"/>
<path d="M25.5 30C32.7902 30 38.7 24.0305 38.7 16.6667C38.7 9.30291 32.7902 3.33337 25.5 3.33337C18.2099 3.33337 12.3 9.30291 12.3 16.6667C12.3 24.0305 18.2099 30 25.5 30Z" fill="white"/>
<path fill-rule="evenodd" clip-rule="evenodd" d="M35.0021 15.2174H34.0858L31.7289 9.95488C31.6223 9.71678 31.4483 9.51449 31.2282 9.37251C31.008 9.23054 30.7511 9.15497 30.4886 9.15497H20.5113C20.2488 9.15497 19.9919 9.23054 19.7717 9.37251C19.5516 9.51449 19.3776 9.71678 19.271 9.95488L16.9141 15.2174H15.9978C15.8178 15.2174 15.6452 15.2884 15.5179 15.4147C15.3906 15.5411 15.3191 15.7124 15.3191 15.891C15.3191 16.0697 15.3906 16.241 15.5179 16.3673C15.6452 16.4937 15.8178 16.5646 15.9978 16.5646H16.6765V23.3007C16.6765 23.658 16.8196 24.0007 17.0741 24.2533C17.3287 24.506 17.674 24.6479 18.034 24.6479H20.0702C20.4302 24.6479 20.7754 24.506 21.03 24.2533C21.2846 24.0007 21.4276 23.658 21.4276 23.3007V22.6271H29.5723V23.3007C29.5723 23.658 29.7153 24.0007 29.9699 24.2533C30.2244 24.506 30.5697 24.6479 30.9297 24.6479H32.9659C33.3259 24.6479 33.6712 24.506 33.9258 24.2533C34.1803 24.0007 34.3233 23.658 34.3233 23.3007V16.5646H35.0021C35.1821 16.5646 35.3547 16.4937 35.482 16.3673C35.6093 16.241 35.6808 16.0697 35.6808 15.891C35.6808 15.7124 35.6093 15.5411 35.482 15.4147C35.3547 15.2884 35.1821 15.2174 35.0021 15.2174ZM22.008 15.2174C20.318 15.2174 19.1932 13.4455 19.8922 11.8846C20.2692 11.0427 21.0965 10.5022 22.008 10.5022H28.9919C29.9033 10.5022 30.7306 11.0427 31.1077 11.8846C31.8067 13.4455 30.6819 15.2174 28.9919 15.2174H22.008ZM20.9361 17.8142C20.9361 17.3101 21.3448 16.9014 21.8489 16.9014C22.353 16.9014 22.7616 17.3101 22.7616 17.8142V19.5098C22.7616 20.0139 22.353 20.4226 21.8489 20.4226C21.3448 20.4226 20.9361 20.0139 20.9361 19.5098V17.8142ZM28.8702 16.9014C28.366 16.9014 27.9574 17.3101 27.9574 17.8142V19.5098C27.9574 20.0139 28.366 20.4226 28.8702 20.4226C29.3743 20.4226 29.7829 20.0139 29.7829 19.5098V17.8142C29.7829 17.3101 29.3743 16.9014 28.8702 16.9014Z" fill="#FBB400"/>
<path d="M25.5 50C29.1451 50 32.1 47.0153 32.1 43.3334C32.1 39.6515 29.1451 36.6667 25.5 36.6667C21.8549 36.6667 18.9 39.6515 18.9 43.3334C18.9 47.0153 21.8549 50 25.5 50Z" fill="#FDBD1A" fill-opacity="0.3"/>
<path d="M25.5 46.6667C27.3225 46.6667 28.8 45.1743 28.8 43.3333C28.8 41.4924 27.3225 40 25.5 40C23.6774 40 22.2 41.4924 22.2 43.3333C22.2 45.1743 23.6774 46.6667 25.5 46.6667Z" fill="#FBB400"/>
</g>
<defs>
<clipPath id="clip0_66_15049">
<rect width="33" height="50" fill="white" transform="translate(9)"/>
</clipPath>
</defs>
</svg>
