<svg width="51" height="50" viewBox="0 0 51 50" fill="none" xmlns="http://www.w3.org/2000/svg">
<g clip-path="url(#clip0_66_15106)">
<path d="M25.5 50C29.1451 50 32.1 47.0153 32.1 43.3334C32.1 39.6515 29.1451 36.6667 25.5 36.6667C21.8549 36.6667 18.9 39.6515 18.9 43.3334C18.9 47.0153 21.8549 50 25.5 50Z" fill="#C6FE22" fill-opacity="0.3"/>
<path d="M28.05 43.3333C28.05 44.7672 26.9012 45.9167 25.5 45.9167C24.0987 45.9167 22.95 44.7672 22.95 43.3333C22.95 41.8995 24.0987 40.75 25.5 40.75C26.9012 40.75 28.05 41.8995 28.05 43.3333Z" fill="#C6FE22" stroke="#313131" stroke-width="1.5"/>
<path d="M36.6355 27.7915L36.635 27.7921L27.885 36.5905C27.2497 37.2276 26.3924 37.5837 25.5005 37.5837C24.6087 37.5837 23.7515 37.2276 23.1162 36.5907C23.1162 36.5906 23.1161 36.5906 23.116 36.5905L14.3634 27.792L14.363 27.7915C12.9014 26.3247 11.741 24.5798 10.949 22.6573C10.1571 20.7348 9.74927 18.6728 9.74927 16.5901C9.74927 14.5073 10.1571 12.4453 10.949 10.5228C11.741 8.60032 12.9014 6.85552 14.363 5.38864C17.3243 2.41673 21.3277 0.750122 25.4988 0.750122C29.67 0.750122 33.6734 2.41673 36.6347 5.38864C38.0963 6.85551 39.2567 8.60032 40.0487 10.5228C40.8406 12.4453 41.2484 14.5073 41.2484 16.5901C41.2484 18.6728 40.8406 20.7348 40.0487 22.6573C39.2566 24.58 38.097 26.3248 36.6355 27.7915Z" fill="#C6FE22" stroke="#313131" stroke-width="1.5"/>
<path d="M20.4147 25.2057C20.2913 25.2901 20.1455 25.3294 19.9996 25.3294C19.3265 25.3294 18.9955 24.508 19.4835 24.0354L19.8369 23.6978C20.224 23.3208 20.224 22.6962 19.8369 22.3249L19.4723 21.9761C18.9899 21.5091 19.3208 20.6876 19.9884 20.6876C20.1455 20.6876 20.2969 20.7382 20.4204 20.8282C22.7372 22.5612 22.294 23.8891 20.4204 25.2057H20.4147Z" fill="#313131"/>
<path d="M31.2528 21.8466V24.1704C31.2528 24.8118 30.7311 25.3294 30.0916 25.3294C29.452 25.3294 28.9359 24.8118 28.9359 24.1704V21.8466C28.9359 21.2108 29.452 20.6876 30.0916 20.6876C30.7311 20.6876 31.2528 21.2108 31.2528 21.8466Z" fill="#313131"/>
<path d="M31.6791 15.9276C32.4476 17.6268 31.2135 19.5567 29.3511 19.5567H21.6545C19.7921 19.5567 18.5523 17.6268 19.3208 15.9276C19.736 15.0104 20.6504 14.4197 21.6545 14.4197H29.3511C30.3552 14.4197 31.264 15.0104 31.6791 15.9276Z" fill="#313131"/>
<path d="M25.4972 3.52112C18.3391 3.52112 12.5106 9.36706 12.5106 16.5521C12.5106 23.7371 18.3391 29.5775 25.4972 29.5775C32.6552 29.5775 38.4893 23.7315 38.4893 16.5521C38.4893 9.37268 32.6608 3.52112 25.4972 3.52112ZM29.9906 27.6307H21.015V28.1765C19.1301 27.445 17.4696 26.2747 16.1682 24.778C15.9101 24.4798 15.7755 24.0916 15.7755 23.6978V21.0308H15.0294C14.8331 21.0308 14.6423 20.952 14.5021 20.817C14.3618 20.6763 14.2833 20.4907 14.2833 20.2994C14.2833 20.1081 14.3618 19.9167 14.5021 19.7761C14.6423 19.6411 14.8331 19.5623 15.0294 19.5623H15.3155C15.7531 19.5623 16.157 19.3035 16.3365 18.904L18.6365 13.8289C18.7543 13.5701 18.945 13.3506 19.1862 13.1931C19.4274 13.0412 19.7135 12.9568 20.0052 12.9568H31.0003C31.2864 12.9568 31.5725 13.0412 31.8137 13.1931C32.055 13.3506 32.2457 13.5701 32.3635 13.8289L34.6635 18.904C34.843 19.3035 35.2469 19.5623 35.6845 19.5623H35.9706C36.1725 19.5623 36.3576 19.6411 36.4979 19.7761C36.6381 19.9167 36.7223 20.1024 36.7223 20.2994C36.7223 20.4963 36.6381 20.6763 36.4979 20.817C36.3576 20.952 36.1725 21.0308 35.9706 21.0308H35.2245V23.6978C35.2245 24.0916 35.0954 24.4855 34.8318 24.7837C33.5247 26.2747 31.8698 27.4563 29.9906 28.1821V27.6307Z" fill="#313131"/>
</g>
<defs>
<clipPath id="clip0_66_15106">
<rect width="33" height="50" fill="white" transform="translate(9)"/>
</clipPath>
</defs>
</svg>
