<svg width="51" height="50" viewBox="0 0 51 50" fill="none" xmlns="http://www.w3.org/2000/svg">
<g clip-path="url(#clip0_66_15032)">
<path d="M37.1676 28.3208L28.4168 37.12C27.6416 37.8973 26.5936 38.3336 25.5012 38.3336C24.4089 38.3336 23.3609 37.8973 22.5857 37.12L13.8324 28.3208C12.301 26.7839 11.0857 24.9562 10.2563 22.9429C9.42696 20.9296 9 18.7706 9 16.59C9 14.4094 9.42696 12.2503 10.2563 10.237C11.0857 8.22377 12.301 6.39607 13.8324 4.85913C16.9337 1.7468 21.1279 0 25.4996 0C29.8713 0 34.0655 1.7468 37.1667 4.85913C38.6981 6.39607 39.9135 8.22377 40.7429 10.237C41.5722 12.2503 41.9992 14.4094 41.9992 16.59C41.9992 18.7706 41.5722 20.9296 40.7429 22.9429C39.9135 24.9562 38.699 26.7839 37.1676 28.3208Z" fill="#91A0A8"/>
<path d="M25.5008 29.9999C32.7909 29.9999 38.7008 24.0304 38.7008 16.6666C38.7008 9.30279 32.7909 3.33325 25.5008 3.33325C18.2106 3.33325 12.3008 9.30279 12.3008 16.6666C12.3008 24.0304 18.2106 29.9999 25.5008 29.9999Z" fill="white"/>
<path d="M35.0028 14.5131H34.0865L31.7297 9.25053C31.623 9.01243 31.4491 8.81014 31.2289 8.66817C31.0088 8.52619 30.7518 8.45063 30.4893 8.45062H20.5121C20.2495 8.45063 19.9926 8.52619 19.7724 8.66817C19.5523 8.81014 19.3784 9.01243 19.2717 9.25053L16.9148 14.5131H15.9985C15.8185 14.5131 15.6459 14.5841 15.5186 14.7104C15.3913 14.8367 15.3198 15.008 15.3198 15.1867C15.3198 15.3653 15.3913 15.5367 15.5186 15.663C15.6459 15.7893 15.8185 15.8603 15.9985 15.8603H16.6773V22.5964C16.6773 22.9537 16.8203 23.2963 17.0749 23.549C17.3294 23.8016 17.6747 23.9436 18.0347 23.9436H20.0709C20.4309 23.9436 20.7762 23.8016 21.0307 23.549C21.2853 23.2963 21.4283 22.9537 21.4283 22.5964V21.9228H29.573V22.5964C29.573 22.9537 29.716 23.2963 29.9706 23.549C30.2252 23.8016 30.5704 23.9436 30.9305 23.9436H32.9666C33.3267 23.9436 33.6719 23.8016 33.9265 23.549C34.1811 23.2963 34.3241 22.9537 34.3241 22.5964V15.8603H35.0028C35.1828 15.8603 35.3554 15.7893 35.4827 15.663C35.61 15.5367 35.6815 15.3653 35.6815 15.1867C35.6815 15.008 35.61 14.8367 35.4827 14.7104C35.3554 14.5841 35.1828 14.5131 35.0028 14.5131ZM21.4283 18.5547H19.3922C19.2122 18.5547 19.0395 18.4838 18.9122 18.3574C18.7849 18.2311 18.7134 18.0598 18.7134 17.8811C18.7134 17.7025 18.7849 17.5311 18.9122 17.4048C19.0395 17.2785 19.2122 17.2075 19.3922 17.2075H21.4283C21.6083 17.2075 21.781 17.2785 21.9083 17.4048C22.0356 17.5311 22.1071 17.7025 22.1071 17.8811C22.1071 18.0598 22.0356 18.2311 21.9083 18.3574C21.781 18.4838 21.6083 18.5547 21.4283 18.5547ZM31.6092 18.5547H29.573C29.393 18.5547 29.2204 18.4838 29.0931 18.3574C28.9658 18.2311 28.8943 18.0598 28.8943 17.8811C28.8943 17.7025 28.9658 17.5311 29.0931 17.4048C29.2204 17.2785 29.393 17.2075 29.573 17.2075H31.6092C31.7892 17.2075 31.9618 17.2785 32.0891 17.4048C32.2164 17.5311 32.2879 17.7025 32.2879 17.8811C32.2879 18.0598 32.2164 18.2311 32.0891 18.3574C31.9618 18.4838 31.7892 18.5547 31.6092 18.5547ZM21.8742 14.5131C20.2428 14.5131 19.1534 12.8316 19.8202 11.3427C20.2411 10.4028 21.1749 9.79784 22.2047 9.79784H28.675C29.7788 9.79784 30.7797 10.4462 31.2308 11.4537C31.8743 12.8904 30.823 14.5131 29.2488 14.5131H21.8742Z" fill="#91A0A8"/>
<path d="M25.5008 49.9999C29.1458 49.9999 32.1008 47.0151 32.1008 43.3332C32.1008 39.6513 29.1458 36.6666 25.5008 36.6666C21.8557 36.6666 18.9008 39.6513 18.9008 43.3332C18.9008 47.0151 21.8557 49.9999 25.5008 49.9999Z" fill="#91A0A8" fill-opacity="0.3"/>
<path d="M25.5007 46.6665C27.3232 46.6665 28.8007 45.1742 28.8007 43.3332C28.8007 41.4923 27.3232 39.9999 25.5007 39.9999C23.6781 39.9999 22.2007 41.4923 22.2007 43.3332C22.2007 45.1742 23.6781 46.6665 25.5007 46.6665Z" fill="#91A0A8"/>
</g>
<defs>
<clipPath id="clip0_66_15032">
<rect width="50.9992" height="50" fill="white"/>
</clipPath>
</defs>
</svg>
