<svg width="51" height="50" viewBox="0 0 51 50" fill="none" xmlns="http://www.w3.org/2000/svg">
<path d="M25.501 50C29.1462 50 32.1012 47.0152 32.1012 43.3333C32.1012 39.6514 29.1462 36.6666 25.501 36.6666C21.8559 36.6666 18.9009 39.6514 18.9009 43.3333C18.9009 47.0152 21.8559 50 25.501 50Z" fill="#91A0A8" fill-opacity="0.3"/>
<path d="M28.3011 43.3335C28.3011 44.903 27.0427 46.1668 25.501 46.1668C23.9593 46.1668 22.7009 44.903 22.7009 43.3335C22.7009 41.7639 23.9593 40.5001 25.501 40.5001C27.0427 40.5001 28.3011 41.7639 28.3011 43.3335Z" fill="#313131" stroke="#313131"/>
<path d="M14.1867 5.21207C17.1948 2.19335 21.2619 0.5 25.5 0.5C29.7381 0.5 33.8052 2.19335 36.8133 5.21207C38.2982 6.70231 39.4769 8.47475 40.2813 10.4275C41.0858 12.3803 41.5 14.4746 41.5 16.59C41.5 18.7054 41.0858 20.7997 40.2813 22.7525C39.4769 24.7054 38.2989 26.4778 36.8141 27.968L36.8137 27.9683L28.0632 36.767C28.0631 36.7671 28.0631 36.7672 28.063 36.7673C27.3811 37.451 26.4603 37.8337 25.5016 37.8337C24.5429 37.8337 23.6221 37.4509 22.9402 36.7671C22.9402 36.7671 22.9401 36.7671 22.9401 36.767L14.187 27.9683L14.1867 27.968C12.7018 26.4777 11.5231 24.7053 10.7187 22.7525C9.91421 20.7997 9.5 18.7054 9.5 16.59C9.5 14.4746 9.91421 12.3803 10.7187 10.4275C11.5231 8.47475 12.7018 6.70231 14.1867 5.21207ZM14.1867 5.21207L13.8326 4.85914M14.1867 5.21207L13.8326 4.85914M13.8326 4.85914C16.9339 1.7468 21.1282 0 25.5 0C29.8718 0 34.0661 1.7468 37.1674 4.85914C38.6989 6.39609 39.9143 8.22379 40.7437 10.2371C41.573 12.2503 42 14.4094 42 16.59C42 18.7706 41.573 20.9297 40.7437 22.943C39.9143 24.9562 38.6997 26.7839 37.1683 28.3209L13.8326 4.85914Z" fill="#313131" stroke="#313131"/>
<path d="M20.4157 25.2057C20.2923 25.2901 20.1464 25.3295 20.0005 25.3295C19.3274 25.3295 18.9964 24.508 19.4844 24.0354L19.8379 23.6978C20.2249 23.3208 20.2249 22.6962 19.8379 22.3249L19.4732 21.976C18.9908 21.509 19.3218 20.6876 19.9893 20.6876C20.1464 20.6876 20.2979 20.7382 20.4213 20.8282C22.7382 22.5612 22.295 23.8891 20.4213 25.2057H20.4157Z" fill="#C6FE22"/>
<path d="M31.254 21.8466V24.1704C31.254 24.8118 30.7323 25.3295 30.0927 25.3295C29.4532 25.3295 28.9371 24.8118 28.9371 24.1704V21.8466C28.9371 21.2108 29.4532 20.6876 30.0927 20.6876C30.7323 20.6876 31.254 21.2108 31.254 21.8466Z" fill="#C6FE22"/>
<path d="M31.6803 15.9275C32.4489 17.6267 31.2147 19.5566 29.3522 19.5566H21.6555C19.793 19.5566 18.5532 17.6267 19.3218 15.9275C19.7369 15.0104 20.6513 14.4196 21.6555 14.4196H29.3522C30.3564 14.4196 31.2652 15.0104 31.6803 15.9275Z" fill="#C6FE22"/>
<path d="M25.4982 3.52106C18.34 3.52106 12.5114 9.36701 12.5114 16.5521C12.5114 23.7371 18.34 29.5775 25.4982 29.5775C32.6565 29.5775 38.4907 23.7315 38.4907 16.5521C38.4907 9.37264 32.6621 3.52106 25.4982 3.52106ZM29.9918 27.6307H21.0159V28.1765C19.131 27.445 17.4705 26.2747 16.169 24.7781C15.9109 24.4798 15.7763 24.0916 15.7763 23.6978V21.0308H15.0302C14.8338 21.0308 14.6431 20.952 14.5029 20.817C14.3626 20.6763 14.2841 20.4906 14.2841 20.2993C14.2841 20.108 14.3626 19.9167 14.5029 19.7761C14.6431 19.641 14.8338 19.5623 15.0302 19.5623H15.3163C15.7539 19.5623 16.1578 19.3034 16.3373 18.904L18.6373 13.8288C18.7552 13.57 18.9459 13.3506 19.1871 13.193C19.4283 13.0411 19.7144 12.9567 20.0062 12.9567H31.0015C31.2876 12.9567 31.5737 13.0411 31.815 13.193C32.0562 13.3506 32.2469 13.57 32.3647 13.8288L34.6648 18.904C34.8443 19.3034 35.2482 19.5623 35.6858 19.5623H35.9719C36.1738 19.5623 36.359 19.641 36.4992 19.7761C36.6395 19.9167 36.7236 20.1024 36.7236 20.2993C36.7236 20.4963 36.6395 20.6763 36.4992 20.817C36.359 20.952 36.1738 21.0308 35.9719 21.0308H35.2258V23.6978C35.2258 24.0916 35.0968 24.4855 34.8331 24.7837C33.526 26.2747 31.8711 27.4563 29.9918 28.1821V27.6307Z" fill="#C6FE22"/>
<path fill-rule="evenodd" clip-rule="evenodd" d="M29.9918 27.6307H21.0159V28.1765C19.131 27.445 17.4705 26.2747 16.169 24.7781C15.9109 24.4798 15.7763 24.0916 15.7763 23.6978V21.0308H15.0302C14.8338 21.0308 14.6431 20.952 14.5029 20.817C14.3626 20.6763 14.2841 20.4906 14.2841 20.2993C14.2841 20.108 14.3626 19.9167 14.5029 19.7761C14.6431 19.641 14.8338 19.5623 15.0302 19.5623H15.3163C15.7539 19.5623 16.1578 19.3034 16.3373 18.904L18.6373 13.8288C18.7552 13.57 18.9459 13.3506 19.1871 13.193C19.4283 13.0411 19.7144 12.9567 20.0062 12.9567H31.0015C31.2876 12.9567 31.5737 13.0411 31.815 13.193C32.0562 13.3506 32.2469 13.57 32.3647 13.8288L34.6648 18.904C34.8443 19.3034 35.2482 19.5623 35.6858 19.5623H35.9719C36.1738 19.5623 36.359 19.641 36.4992 19.7761C36.6395 19.9167 36.7236 20.1024 36.7236 20.2993C36.7236 20.4963 36.6395 20.6763 36.4992 20.817C36.359 20.952 36.1738 21.0308 35.9719 21.0308H35.2258V23.6978C35.2258 24.0916 35.0968 24.4855 34.8331 24.7837C33.526 26.2747 31.8711 27.4563 29.9918 28.1821V27.6307ZM20.0005 25.3295C20.1464 25.3295 20.2923 25.2901 20.4157 25.2057H20.4213C22.295 23.8891 22.7382 22.5612 20.4213 20.8282C20.2979 20.7382 20.1464 20.6876 19.9893 20.6876C19.3218 20.6876 18.9908 21.509 19.4732 21.976L19.8379 22.3249C20.2249 22.6962 20.2249 23.3208 19.8379 23.6978L19.4844 24.0354C18.9964 24.508 19.3274 25.3295 20.0005 25.3295ZM31.254 24.1704V21.8466C31.254 21.2108 30.7323 20.6876 30.0927 20.6876C29.4532 20.6876 28.9371 21.2108 28.9371 21.8466V24.1704C28.9371 24.8118 29.4532 25.3295 30.0927 25.3295C30.7323 25.3295 31.254 24.8118 31.254 24.1704ZM29.3522 19.5566C31.2147 19.5566 32.4489 17.6267 31.6803 15.9275C31.2652 15.0104 30.3564 14.4196 29.3522 14.4196H21.6555C20.6513 14.4196 19.7369 15.0104 19.3218 15.9275C18.5532 17.6267 19.793 19.5566 21.6555 19.5566H29.3522Z" fill="#C6FE22"/>
<path fill-rule="evenodd" clip-rule="evenodd" d="M34.0858 18.0343H35.0021C35.1821 18.0343 35.3547 18.1052 35.482 18.2316C35.6093 18.3579 35.6808 18.5292 35.6808 18.7079C35.6808 18.8865 35.6093 19.0579 35.482 19.1842C35.3547 19.3105 35.1821 19.3815 35.0021 19.3815H34.3233V26.1175C34.3233 26.4748 34.1803 26.8175 33.9258 27.0702C33.6712 27.3228 33.3259 27.4648 32.9659 27.4648H30.9297C30.5697 27.4648 30.2244 27.3228 29.9699 27.0702C29.7153 26.8175 29.5723 26.4748 29.5723 26.1175V25.4439H21.4276V26.1175C21.4276 26.4748 21.2846 26.8175 21.03 27.0702C20.7754 27.3228 20.4302 27.4648 20.0702 27.4648H18.034C17.674 27.4648 17.3287 27.3228 17.0741 27.0702C16.8196 26.8175 16.6765 26.4748 16.6765 26.1175V19.3815H15.9978C15.8178 19.3815 15.6452 19.3105 15.5179 19.1842C15.3906 19.0579 15.3191 18.8865 15.3191 18.7079C15.3191 18.5292 15.3906 18.3579 15.5179 18.2316C15.6452 18.1052 15.8178 18.0343 15.9978 18.0343H16.9141L19.271 12.7717C19.3776 12.5336 19.5516 12.3313 19.7717 12.1893C19.9919 12.0474 20.2488 11.9718 20.5113 11.9718H30.4886C30.7511 11.9718 31.008 12.0474 31.2282 12.1893C31.4483 12.3313 31.6223 12.5336 31.7289 12.7717L34.0858 18.0343ZM19.8922 14.7014C19.1932 16.2624 20.318 18.0343 22.008 18.0343H28.9919C30.6819 18.0343 31.8067 16.2624 31.1077 14.7014C30.7306 13.8596 29.9033 13.319 28.9919 13.319H22.008C21.0965 13.319 20.2692 13.8596 19.8922 14.7014ZM29.668 19.0729C30.2479 19.0729 30.718 19.5498 30.718 20.1381V22.2684C30.718 22.8567 30.2479 23.3335 29.668 23.3335C29.0882 23.3335 28.6181 22.8567 28.6181 22.2684V20.1381C28.6181 19.5498 29.0882 19.0729 29.668 19.0729ZM20.8895 19.202C20.7771 19.117 20.6391 19.0729 20.499 19.0729C19.8901 19.0729 19.5917 19.8256 20.0309 20.2534L20.3602 20.5741C20.7126 20.9173 20.7126 21.4891 20.3602 21.8323L20.0381 22.1461C19.5962 22.5764 19.8965 23.3335 20.509 23.3335C20.6429 23.3335 20.7744 23.294 20.8842 23.2163C22.5902 22.0093 22.9907 20.7906 20.8895 19.202Z" fill="#313131"/>
</svg>
